<?xml version="1.0" encoding="utf-8"?>
<!-- Generator: Adobe Illustrator 16.0.0, SVG Export Plug-In . SVG Version: 6.00 Build 0)  -->
<!DOCTYPE svg PUBLIC "-//W3C//DTD SVG 1.1//EN" "http://www.w3.org/Graphics/SVG/1.1/DTD/svg11.dtd">
<svg version="1.1" id="Layer_1" xmlns="http://www.w3.org/2000/svg" xmlns:xlink="http://www.w3.org/1999/xlink" x="0px" y="0px"
	 width="100px" height="100px" viewBox="0 0 100 100" enable-background="new 0 0 100 100" xml:space="preserve">
<path fill="#113754" d="M79.709,57.706V43.05c0-14.167-14.191-27.065-29.771-27.065c-15.581,0-29.773,12.898-29.773,27.065v14.656
	c-5.201,0.653-9.242,5.048-9.242,10.429v4.228c0,5.834,4.728,10.56,10.561,10.56h7.858c0.581,0,1.056-0.475,1.056-1.056V58.63
	c0-0.581-0.475-1.057-1.056-1.057h-4.953V43.05c0-11.745,12.417-22.843,25.55-22.843c13.132,0,25.549,11.098,25.549,22.843v14.523
	h-4.953c-0.581,0-1.057,0.48-1.057,1.057v23.236c0,0.585,0.476,1.056,1.057,1.056h7.857c5.834,0,10.561-4.726,10.561-10.56v-4.228
	C88.951,62.754,84.915,58.359,79.709,57.706z"/>
<rect fill="none" width="100" height="100"/>
</svg>
